<svg xmlns="http://www.w3.org/2000/svg" width="13" height="17" viewBox="0 0 13 17">
  <defs>
    <style>
      .cls-1 {
        fill: #55f1a0;
        fill-rule: evenodd;
      }
    </style>
  </defs>
  <path id="icon-user" class="cls-1" d="M1202.5,53.314c1.9,0,3.44-1.861,3.44-4.157S1205.44,45,1202.5,45s-3.44,1.861-3.44,4.157S1200.6,53.314,1202.5,53.314Zm-6.5,6.347h0Zm13,0.109h0Zm-0.01-.277c-0.06-4-.59-5.139-4.61-5.86a2.823,2.823,0,0,1-3.76,0c-3.98.714-4.54,1.836-4.61,5.731-0.01.318-.01,0.335-0.01,0.3v0.42S1196.96,62,1202.5,62s6.5-1.918,6.5-1.918V59.771C1209,59.794,1209,59.749,1208.99,59.494Z" transform="translate(-1196 -45)"/>
</svg>
